{"title":"Bipasha (Jodi Breakers) - H.264 - 720p [HD] ~~~AbhinavRocks {{-H","uid":6972880,"size":53653168,"categoryP":"video","categoryS":"music_videos","magnet":"?xt=urn:btih:fcca4f3b9697ad986b39e21a983837b2058ff109&amp;dn=Bipasha+%28Jodi+Breakers%29+-+H.264+-+720p+%5BHD%5D+%7E%7E%7EAbhinavRocks+%7B%7B-H&amp;tr=udp%3A%2F%2Ftracker.openbittorrent.com%3A80&amp;tr=udp%3A%2F%2Fopen.demonii.com%3A1337&amp;tr=udp%3A%2F%2Ftracker.coppersurfer.tk%3A6969&amp;tr=udp%3A%2F%2Fexodus.desync.com%3A6969","seeders":2,"leechers":0,"uploader":"AbhiHKRG","files":6,"time":1327145029,"description":"Cover ::\n &lt;a href=&quot;\nhttp://i.minus.com/ibt6bvRN6G7WvN.png&quot; rel=&quot;nofollow&quot; target=&quot;_NEW&quot;&gt;\nhttp://i.minus.com/ibt6bvRN6G7WvN.png&lt;/a&gt;\n\n\nScreen ::\n &lt;a href=&quot;\nhttp://i.minus.com/iDrdWJ3SPmHzi.png&quot; rel=&quot;nofollow&quot; target=&quot;_NEW&quot;&gt;\nhttp://i.minus.com/iDrdWJ3SPmHzi.png&lt;/a&gt;\n &lt;a href=&quot;\nhttp://i.minus.com/ibb1a51sv4VHwD.png&quot; rel=&quot;nofollow&quot; target=&quot;_NEW&quot;&gt;\nhttp://i.minus.com/ibb1a51sv4VHwD.png&lt;/a&gt;\n &lt;a href=&quot;\nhttp://i.minus.com/ibcqQySs9Ka7zD.png&quot; rel=&quot;nofollow&quot; target=&quot;_NEW&quot;&gt;\nhttp://i.minus.com/ibcqQySs9Ka7zD.png&lt;/a&gt;\n &lt;a href=&quot;\nhttp://i.minus.com/iBlv8plIfcUuh.png&quot; rel=&quot;nofollow&quot; target=&quot;_NEW&quot;&gt;\nhttp://i.minus.com/iBlv8plIfcUuh.png&lt;/a&gt;\n &lt;a href=&quot;\nhttp://i.minus.com/iGyfySBpck3ZZ.jpg&quot; rel=&quot;nofollow&quot; target=&quot;_NEW&quot;&gt;\nhttp://i.minus.com/iGyfySBpck3ZZ.jpg&lt;/a&gt;\n\nGeneral Info ::\nFormat                           : AVI\nFormat/Info                      : Audio Video Interleave\nFile size                        : 51.2 MiB\nDuration                         : 2mn 10s\nOverall bit rate                 : 3 284 Kbps\n\n\nVideo Info ::\nID                               : 0\nFormat                           : AVC\nFormat/Info                      : Advanced Video Codec\nFormat profile                   : &lt;a class=&quot;__cf_email__&quot; href=&quot;/cdn-cgi/l/email-protection&quot; data-cfemail=&quot;3d75545a557d7108130c&quot;&gt;[email&amp;#160;protected]&lt;/a&gt;&lt;script cf-hash='f9e31' type=&quot;text/javascript&quot;&gt;\n/* &lt;![CDATA[ */!function(){try{var t=&quot;currentScript&quot;in document?document.currentScript:function(){for(var t=document.getElementsByTagName(&quot;script&quot;),e=t.length;e--;)if(t[e].getAttribute(&quot;cf-hash&quot;))return t[e]}();if(t&amp;&amp;t.previousSibling){var e,r,n,i,c=t.previousSibling,a=c.getAttribute(&quot;data-cfemail&quot;);if(a){for(e=&quot;&quot;,r=parseInt(a.substr(0,2),16),n=2;a.length-n;n+=2)i=parseInt(a.substr(n,2),16)^r,e+=String.fromCharCode(i);e=document.createTextNode(e),c.parentNode.replaceChild(e,c)}}}catch(u){}}();/* ]]&gt; */&lt;/script&gt;\nFormat settings, CABAC           : Yes\nFormat settings, ReFrames        : 2 frames\nCodec ID                         : H264\nDuration                         : 10s 0ms\nBit rate                         : 2 955 Kbps\nWidth                            : 1 280 pixels\nHeight                           : 544 pixels\nDisplay aspect ratio             : 2.35:1\nFrame rate                       : 30.000 fps\nColor space                      : YUV\nChroma subsampling               : 4:2:0\nBit depth                        : 8 bits\nScan type                        : Progressive\nBits/(Pixel*Frame)               : 0.141\nStream size                      : 46.0 MiB (90%)\n\n\nAudio Info ::\nID                               : 1\nFormat                           : MPEG Audio\nFormat version                   : Version 1\nFormat profile                   : Layer 3\nCodec ID                         : 55\nCodec ID/Hint                    : MP3\nDuration                         : 2mn 10s\nBit rate mode                    : Constant\nBit rate                         : 320 Kbps\nChannel(s)                       : 2 channels\nSampling rate                    : 48.0 KHz\nCompression mode                 : Lossy\nStream size                      : 4.99 MiB (10%)","torrent":{"xt":"urn:btih:fcca4f3b9697ad986b39e21a983837b2058ff109","amp;dn":"Bipasha+%28Jodi+Breakers%29+-+H.264+-+720p+%5BHD%5D+%7E%7E%7EAbhinavRocks+%7B%7B-H","amp;tr":["udp%3A%2F%2Ftracker.openbittorrent.com%3A80","udp%3A%2F%2Fopen.demonii.com%3A1337","udp%3A%2F%2Ftracker.coppersurfer.tk%3A6969","udp%3A%2F%2Fexodus.desync.com%3A6969"],"infoHash":"fcca4f3b9697ad986b39e21a983837b2058ff109","infoHashBuffer":{"type":"Buffer","data":[252,202,79,59,150,151,173,152,107,57,226,26,152,56,55,178,5,143,241,9]},"announce":[],"urlList":[]}}